<svg xmlns="http://www.w3.org/2000/svg" xmlns:xlink="http://www.w3.org/1999/xlink" width="169" height="102.343" viewBox="0 0 169 102.343">
  <defs>
    <clipPath id="clip-path">
      <rect id="사각형_41" data-name="사각형 41" width="169" height="102.343" fill="none"/>
    </clipPath>
  </defs>
  <g id="그룹_39" data-name="그룹 39" transform="translate(525 27)" opacity="0.32">
    <g id="그룹_38" data-name="그룹 38" transform="translate(-525 -27)" clip-path="url(#clip-path)">
      <path id="패스_80" data-name="패스 80" d="M400.751,191.7a18.4,18.4,0,1,1-23.724-10.69,18.4,18.4,0,0,1,23.724,10.69" transform="translate(-247.57 -121.917)" fill="#494949"/>
      <path id="패스_81" data-name="패스 81" d="M374.161,254.948a18.4,18.4,0,0,0,33.494-6.094c-7.852,7.072-21.449,7.864-33.494,6.094" transform="translate(-253.687 -168.727)"/>
      <path id="패스_82" data-name="패스 82" d="M0,172.665l39.093,33.8-6.8,7.742L0,185.853" transform="translate(0 -117.322)" fill="#fff"/>
      <path id="패스_83" data-name="패스 83" d="M82.05,209.131a5.152,5.152,0,0,1-3.809-8.62l36.458-40.06a5.152,5.152,0,0,1,7.621,6.935l-36.459,40.06a5.139,5.139,0,0,1-3.811,1.684" transform="translate(-52.139 -107.646)" fill="#012a85"/>
      <rect id="사각형_40" data-name="사각형 40" width="49.94" height="87.887" transform="translate(51.274 50.169) rotate(-53.583)" fill="#fff"/>
      <path id="패스_84" data-name="패스 84" d="M242.329,196.358a.8.8,0,0,1-.477-.157l-63.537-46.873a.8.8,0,1,1,.956-1.3l63.537,46.872a.8.8,0,0,1-.478,1.453" transform="translate(-120.678 -100.262)" fill="#cac3b1"/>
      <path id="패스_85" data-name="패스 85" d="M251.79,183.532a.8.8,0,0,1-.477-.157L187.775,136.5a.8.8,0,1,1,.956-1.3l63.538,46.872a.8.8,0,0,1-.478,1.453" transform="translate(-127.093 -91.566)" fill="#cac3b1"/>
      <path id="패스_86" data-name="패스 86" d="M261.252,170.706a.8.8,0,0,1-.477-.157l-63.538-46.872a.8.8,0,0,1,.956-1.3l63.538,46.872a.8.8,0,0,1-.478,1.453" transform="translate(-133.508 -82.87)" fill="#cac3b1"/>
      <path id="패스_87" data-name="패스 87" d="M247.532,66.186,195.4,27.728,215.981,0l85.5,63.077s-7.221,13.8-20.744,7.363c-7.719-3.675-13.947-1.261-21.749-.411-4.285.467-8.111-1.331-11.459-3.842" transform="translate(-132.484)" fill="#012a85"/>
      <path id="패스_88" data-name="패스 88" d="M103.8,280.237a2.468,2.468,0,1,0-2.468,2.468,2.468,2.468,0,0,0,2.468-2.468" transform="translate(-67.033 -188.332)" fill="#fff"/>
    </g>
  </g>
</svg>
