<svg id="그룹_50" data-name="그룹 50" xmlns="http://www.w3.org/2000/svg" xmlns:xlink="http://www.w3.org/1999/xlink" width="80" height="80" viewBox="0 0 80 80">
  <defs>
    <clipPath id="clip-path">
      <rect id="사각형_48" data-name="사각형 48" width="80" height="80" fill="none"/>
    </clipPath>
  </defs>
  <g id="그룹_49" data-name="그룹 49" clip-path="url(#clip-path)">
    <path id="패스_108" data-name="패스 108" d="M80,40A40,40,0,1,1,40,0,40,40,0,0,1,80,40" fill="#ecf2ff"/>
    <path id="패스_109" data-name="패스 109" d="M37.491,42.441a3.548,3.548,0,1,0,0-5.018A3.548,3.548,0,0,0,37.491,42.441Z" fill="none" stroke="#007aff" stroke-width="2.5"/>
    <path id="패스_110" data-name="패스 110" d="M31.83,31.763a11.553,11.553,0,0,0,0,16.339" fill="none" stroke="#666" stroke-linecap="round" stroke-linejoin="round" stroke-width="3"/>
    <path id="패스_111" data-name="패스 111" d="M26.17,26.1a19.559,19.559,0,0,0,0,27.66" fill="none" stroke="#666" stroke-linecap="round" stroke-linejoin="round" stroke-width="3"/>
    <path id="패스_112" data-name="패스 112" d="M20.509,20.441a27.565,27.565,0,0,0,0,38.982" fill="none" stroke="#666" stroke-linecap="round" stroke-linejoin="round" stroke-width="3"/>
    <path id="패스_113" data-name="패스 113" d="M48.169,31.822a11.553,11.553,0,0,1,0,16.339" fill="none" stroke="#666" stroke-linecap="round" stroke-linejoin="round" stroke-width="3"/>
    <path id="패스_114" data-name="패스 114" d="M53.83,26.162a19.559,19.559,0,0,1,0,27.66" fill="none" stroke="#666" stroke-linecap="round" stroke-linejoin="round" stroke-width="3"/>
    <path id="패스_115" data-name="패스 115" d="M59.491,20.5a27.564,27.564,0,0,1,0,38.982" fill="none" stroke="#666" stroke-linecap="round" stroke-linejoin="round" stroke-width="3"/>
  </g>
</svg>
