<svg id="그룹_48" data-name="그룹 48" xmlns="http://www.w3.org/2000/svg" xmlns:xlink="http://www.w3.org/1999/xlink" width="80" height="80" viewBox="0 0 80 80">
  <defs>
    <clipPath id="clip-path">
      <rect id="사각형_47" data-name="사각형 47" width="80" height="80" fill="none"/>
    </clipPath>
  </defs>
  <g id="그룹_47" data-name="그룹 47" clip-path="url(#clip-path)">
    <path id="패스_105" data-name="패스 105" d="M80,40A40,40,0,1,1,40,0,40,40,0,0,1,80,40" fill="#ecf2ff"/>
    <path id="패스_106" data-name="패스 106" d="M40,66.316h0a8.972,8.972,0,0,1-8.972-8.972V22.657a8.972,8.972,0,1,1,17.944,0V57.344A8.972,8.972,0,0,1,40,66.316Z" fill="none" stroke="#666" stroke-width="2.5"/>
    <path id="패스_107" data-name="패스 107" d="M41.654,51.579V20.606a1.658,1.658,0,0,0-3.309,0V51.579a4.189,4.189,0,0,0-2.8,3.876,4.464,4.464,0,0,0,8.909,0A4.189,4.189,0,0,0,41.654,51.579Z" fill="none" stroke="#007aff" stroke-width="2.5"/>
    <line id="선_8" data-name="선 8" x2="4.2" transform="translate(44.751 26.609)" fill="none" stroke="#666" stroke-width="2.5"/>
    <line id="선_9" data-name="선 9" x2="4.2" transform="translate(44.751 32.527)" fill="none" stroke="#666" stroke-width="2.5"/>
    <line id="선_10" data-name="선 10" x2="4.2" transform="translate(44.751 38.444)" fill="none" stroke="#666" stroke-width="2.5"/>
    <line id="선_11" data-name="선 11" x2="4.2" transform="translate(44.751 44.362)" fill="none" stroke="#666" stroke-width="2.5"/>
  </g>
</svg>
